<svg xmlns="http://www.w3.org/2000/svg" viewBox="0 0 100 100">
  <!-- 배경 원 -->
  <circle cx="50" cy="50" r="48" fill="#0f172a"/>

  <!-- 숲 (소나무 실루엣) -->
  <g fill="#4A9F6D">
    <!-- 왼쪽 나무 -->
    <path d="M20 62 L28 38 L36 62 Z"/>
    <path d="M23 48 L28 30 L33 48 Z"/>
    <!-- 중앙 큰 나무 -->
    <path d="M38 62 L50 22 L62 62 Z"/>
    <path d="M42 45 L50 18 L58 45 Z"/>
    <path d="M45 32 L50 12 L55 32 Z"/>
    <!-- 오른쪽 나무 -->
    <path d="M64 62 L72 38 L80 62 Z"/>
    <path d="M67 48 L72 30 L77 48 Z"/>
  </g>

  <!-- 바다 (파도) -->
  <g fill="none" stroke="#4A90A4" stroke-width="4" stroke-linecap="round">
    <path d="M10 72 Q22 66 34 72 T58 72 T82 72 T106 72"/>
    <path d="M6 82 Q18 76 30 82 T54 82 T78 82 T102 82"/>
    <path d="M14 92 Q26 86 38 92 T62 92 T86 92" opacity="0.6"/>
  </g>
</svg>
