<svg xmlns="http://www.w3.org/2000/svg" viewBox="0 0 100 100">
  <!-- 배경 원 (검은 테두리 포함) -->
  <circle cx="50" cy="50" r="48" fill="white" stroke="#1a2332" stroke-width="3"/>

  <!-- 숲 (소나무 실루엣) -->
  <g fill="#2d5a3d">
    <!-- 왼쪽 나무 -->
    <path d="M22 68 L28 45 L34 68 Z"/>
    <path d="M25 55 L28 38 L31 55 Z"/>
    <!-- 중앙 큰 나무 -->
    <path d="M38 68 L50 30 L62 68 Z"/>
    <path d="M42 52 L50 25 L58 52 Z"/>
    <path d="M45 40 L50 20 L55 40 Z"/>
    <!-- 오른쪽 나무 -->
    <path d="M66 68 L72 45 L78 68 Z"/>
    <path d="M69 55 L72 38 L75 55 Z"/>
  </g>

  <!-- 바다 (파도) -->
  <g fill="none" stroke="#4A90A4" stroke-width="3" stroke-linecap="round">
    <path d="M12 75 Q22 70 32 75 T52 75 T72 75 T92 75"/>
    <path d="M8 82 Q18 77 28 82 T48 82 T68 82 T88 82"/>
    <path d="M15 89 Q25 84 35 89 T55 89 T75 89 T95 89" opacity="0.7"/>
  </g>

  <!-- 텍스트 (숲속의바다) - 작은 크기 -->
  <text x="50" y="97" text-anchor="middle" font-family="Arial, sans-serif" font-size="7" font-weight="bold" fill="#1a2332">숲속의바다</text>
</svg>
